<?xml version="1.0" encoding="utf-8" standalone="no"?>
<!DOCTYPE svg PUBLIC "-//W3C//DTD SVG 1.1//EN"
  "http://www.w3.org/Graphics/SVG/1.1/DTD/svg11.dtd">
<svg xmlns:xlink="http://www.w3.org/1999/xlink" width="440.39952pt" height="189.394224pt" viewBox="0 0 440.39952 189.394224" xmlns="http://www.w3.org/2000/svg" version="1.1">
 <metadata>
  <rdf:RDF xmlns:dc="http://purl.org/dc/elements/1.1/" xmlns:cc="http://creativecommons.org/ns#" xmlns:rdf="http://www.w3.org/1999/02/22-rdf-syntax-ns#">
   <cc:Work>
    <dc:type rdf:resource="http://purl.org/dc/dcmitype/StillImage"/>
    <dc:date>2026-09-07T00:50:01.904198</dc:date>
    <dc:format>image/svg+xml</dc:format>
    <dc:creator>
     <cc:Agent>
      <dc:title>Matplotlib v3.11.1, https://matplotlib.org/</dc:title>
     </cc:Agent>
    </dc:creator>
   </cc:Work>
  </rdf:RDF>
 </metadata>
 <defs>
  <style type="text/css">*{stroke-linejoin: round; stroke-linecap: butt}</style>
 </defs>
 <g id="figure_1">
  <g id="patch_1">
   <path d="M 0 189.394224 
L 440.39952 189.394224 
L 440.39952 -0 
L 0 -0 
z
" style="fill: #ffffff"/>
  </g>
  <g id="axes_1">
   <g id="patch_2">
    <path d="M 37.4675 130.597984 
L 428.85952 130.597984 
L 428.85952 23.038594 
L 37.4675 23.038594 
z
" style="fill: #ffffff"/>
   </g>
   <g id="matplotlib.axis_1">
    <g id="xtick_1">
     <g id="line2d_1">
      <defs>
       <path id="mf47600c29e" d="M 0 0 
L 0 3.5 
" style="stroke: #202b32; stroke-width: 0.8"/>
      </defs>
      <g>
       <use xlink:href="#mf47600c29e" x="37.4675" y="130.597984" style="fill: #202b32; stroke: #202b32; stroke-width: 0.8"/>
      </g>
     </g>
     <g id="text_1">
      <text style="font-size: 7px; font-family: 'DejaVu Sans'; text-anchor: middle; fill: #202b32" x="37.4675" y="142.916344" transform="rotate(-0 37.4675 142.916344)">0</text>
     </g>
    </g>
    <g id="xtick_2">
     <g id="line2d_2">
      <g>
       <use xlink:href="#mf47600c29e" x="135.315505" y="130.597984" style="fill: #202b32; stroke: #202b32; stroke-width: 0.8"/>
      </g>
     </g>
     <g id="text_2">
      <!-- $\pi/2$ -->
      <g style="fill: #202b32" transform="translate(129.785505 142.916344)">
       <text>
        <tspan x="0" y="-0.796875" style="font-style: oblique; font-size: 7px; font-family: 'DejaVu Sans'; fill: #202b32">π</tspan>
        <tspan x="4.214355" y="-0.796875" style="font-size: 7px; font-family: 'DejaVu Sans'; fill: #202b32">/</tspan>
        <tspan x="6.572754" y="-0.796875" style="font-size: 7px; font-family: 'DejaVu Sans'; fill: #202b32">2</tspan>
       </text>
      </g>
     </g>
    </g>
    <g id="xtick_3">
     <g id="line2d_3">
      <g>
       <use xlink:href="#mf47600c29e" x="233.16351" y="130.597984" style="fill: #202b32; stroke: #202b32; stroke-width: 0.8"/>
      </g>
     </g>
     <g id="text_3">
      <!-- $\pi$ -->
      <g style="fill: #202b32" transform="translate(231.02851 142.916344)">
       <text>
        <tspan x="0" y="-0.171875" style="font-style: oblique; font-size: 7px; font-family: 'DejaVu Sans'; fill: #202b32">π</tspan>
       </text>
      </g>
     </g>
    </g>
    <g id="xtick_4">
     <g id="line2d_4">
      <g>
       <use xlink:href="#mf47600c29e" x="331.011515" y="130.597984" style="fill: #202b32; stroke: #202b32; stroke-width: 0.8"/>
      </g>
     </g>
     <g id="text_4">
      <!-- $3\pi/2$ -->
      <g style="fill: #202b32" transform="translate(323.241515 142.916344)">
       <text>
        <tspan x="0" y="-0.796875" style="font-size: 7px; font-family: 'DejaVu Sans'; fill: #202b32">3</tspan>
        <tspan x="8.667969" y="-0.796875" style="font-size: 7px; font-family: 'DejaVu Sans'; fill: #202b32">/</tspan>
        <tspan x="11.026367" y="-0.796875" style="font-size: 7px; font-family: 'DejaVu Sans'; fill: #202b32">2</tspan>
        <tspan x="4.453613" y="-0.796875" style="font-style: oblique; font-size: 7px; font-family: 'DejaVu Sans'; fill: #202b32">π</tspan>
       </text>
      </g>
     </g>
    </g>
    <g id="xtick_5">
     <g id="line2d_5">
      <g>
       <use xlink:href="#mf47600c29e" x="428.85952" y="130.597984" style="fill: #202b32; stroke: #202b32; stroke-width: 0.8"/>
      </g>
     </g>
     <g id="text_5">
      <!-- $2\pi$ -->
      <g style="fill: #202b32" transform="translate(424.51952 142.916344)">
       <text>
        <tspan x="0" y="-0.796875" style="font-size: 7px; font-family: 'DejaVu Sans'; fill: #202b32">2</tspan>
        <tspan x="4.453613" y="-0.796875" style="font-style: oblique; font-size: 7px; font-family: 'DejaVu Sans'; fill: #202b32">π</tspan>
       </text>
      </g>
     </g>
    </g>
    <g id="text_6">
     <!-- Relative phase $\theta$ -->
     <g style="fill: #202b32" transform="translate(199.92351 154.757984)">
      <text>
       <tspan x="0" y="-0.859375" style="font-size: 8px; font-family: 'DejaVu Sans'; fill: #202b32">R</tspan>
       <tspan x="5.558594" y="-0.859375" style="font-size: 8px; font-family: 'DejaVu Sans'; fill: #202b32">e</tspan>
       <tspan x="10.480469" y="-0.859375" style="font-size: 8px; font-family: 'DejaVu Sans'; fill: #202b32">l</tspan>
       <tspan x="12.703125" y="-0.859375" style="font-size: 8px; font-family: 'DejaVu Sans'; fill: #202b32">a</tspan>
       <tspan x="17.605469" y="-0.859375" style="font-size: 8px; font-family: 'DejaVu Sans'; fill: #202b32">t</tspan>
       <tspan x="20.742188" y="-0.859375" style="font-size: 8px; font-family: 'DejaVu Sans'; fill: #202b32">i</tspan>
       <tspan x="22.964844" y="-0.859375" style="font-size: 8px; font-family: 'DejaVu Sans'; fill: #202b32">v</tspan>
       <tspan x="27.699219" y="-0.859375" style="font-size: 8px; font-family: 'DejaVu Sans'; fill: #202b32">e</tspan>
       <tspan x="32.621094" y="-0.859375" style="font-size: 8px; font-family: 'DejaVu Sans'; fill: #202b32"> </tspan>
       <tspan x="35.164062" y="-0.859375" style="font-size: 8px; font-family: 'DejaVu Sans'; fill: #202b32">p</tspan>
       <tspan x="40.242188" y="-0.859375" style="font-size: 8px; font-family: 'DejaVu Sans'; fill: #202b32">h</tspan>
       <tspan x="45.3125" y="-0.859375" style="font-size: 8px; font-family: 'DejaVu Sans'; fill: #202b32">a</tspan>
       <tspan x="50.214844" y="-0.859375" style="font-size: 8px; font-family: 'DejaVu Sans'; fill: #202b32">s</tspan>
       <tspan x="54.382812" y="-0.859375" style="font-size: 8px; font-family: 'DejaVu Sans'; fill: #202b32">e</tspan>
       <tspan x="59.304688" y="-0.859375" style="font-size: 8px; font-family: 'DejaVu Sans'; fill: #202b32"> </tspan>
       <tspan x="61.847656" y="-0.859375" style="font-style: oblique; font-size: 8px; font-family: 'DejaVu Sans'; fill: #202b32">θ</tspan>
      </text>
     </g>
    </g>
   </g>
   <g id="matplotlib.axis_2">
    <g id="ytick_1">
     <g id="line2d_6">
      <path d="M 37.4675 126.614303 
L 428.85952 126.614303 
" clip-path="url(#p226ce80b54)" style="fill: none; stroke: #dde2e5; stroke-width: 0.6; stroke-linecap: square"/>
     </g>
     <g id="line2d_7">
      <defs>
       <path id="m74e9c6cc25" d="M 0 0 
L -3.5 0 
" style="stroke: #202b32; stroke-width: 0.8"/>
      </defs>
      <g>
       <use xlink:href="#m74e9c6cc25" x="37.4675" y="126.614303" style="fill: #202b32; stroke: #202b32; stroke-width: 0.8"/>
      </g>
     </g>
     <g id="text_7">
      <text style="font-size: 7px; font-family: 'DejaVu Sans'; text-anchor: end; fill: #202b32" x="30.4675" y="129.273483" transform="rotate(-0 30.4675 129.273483)">0</text>
     </g>
    </g>
    <g id="ytick_2">
     <g id="line2d_8">
      <path d="M 37.4675 76.818289 
L 428.85952 76.818289 
" clip-path="url(#p226ce80b54)" style="fill: none; stroke: #dde2e5; stroke-width: 0.6; stroke-linecap: square"/>
     </g>
     <g id="line2d_9">
      <g>
       <use xlink:href="#m74e9c6cc25" x="37.4675" y="76.818289" style="fill: #202b32; stroke: #202b32; stroke-width: 0.8"/>
      </g>
     </g>
     <g id="text_8">
      <text style="font-size: 7px; font-family: 'DejaVu Sans'; text-anchor: end; fill: #202b32" x="30.4675" y="79.477469" transform="rotate(-0 30.4675 79.477469)">1/2</text>
     </g>
    </g>
    <g id="ytick_3">
     <g id="line2d_10">
      <path d="M 37.4675 27.022275 
L 428.85952 27.022275 
" clip-path="url(#p226ce80b54)" style="fill: none; stroke: #dde2e5; stroke-width: 0.6; stroke-linecap: square"/>
     </g>
     <g id="line2d_11">
      <g>
       <use xlink:href="#m74e9c6cc25" x="37.4675" y="27.022275" style="fill: #202b32; stroke: #202b32; stroke-width: 0.8"/>
      </g>
     </g>
     <g id="text_9">
      <text style="font-size: 7px; font-family: 'DejaVu Sans'; text-anchor: end; fill: #202b32" x="30.4675" y="29.681455" transform="rotate(-0 30.4675 29.681455)">1</text>
     </g>
    </g>
    <g id="text_10">
     <!-- $P_{\theta}(+)$ -->
     <g style="fill: #202b32" transform="translate(13.28 87.538289) rotate(-90)">
      <text>
       <tspan x="0" y="-0.921875" style="font-style: oblique; font-size: 8px; font-family: 'DejaVu Sans'; fill: #202b32">P</tspan>
       <tspan x="4.824219" y="0.278121" style="font-style: oblique; font-size: 5.6px; font-family: 'DejaVu Sans'; fill: #202b32">θ</tspan>
       <tspan x="8.469141" y="-0.921875" style="font-size: 8px; font-family: 'DejaVu Sans'; fill: #202b32">(</tspan>
       <tspan x="11.590234" y="-0.921875" style="font-size: 8px; font-family: 'DejaVu Sans'; fill: #202b32">+</tspan>
       <tspan x="18.293359" y="-0.921875" style="font-size: 8px; font-family: 'DejaVu Sans'; fill: #202b32">)</tspan>
      </text>
     </g>
    </g>
   </g>
   <g id="line2d_12">
    <path d="M 37.4675 27.022275 
L 41.38142 27.120536 
L 45.29534 27.414931 
L 49.209261 27.904299 
L 53.775501 28.719033 
L 58.341741 29.79211 
L 62.907981 31.117767 
L 67.474222 32.688883 
L 72.040462 34.49702 
L 76.606702 36.532467 
L 81.825262 39.122953 
L 87.043823 41.977843 
L 92.262383 45.077115 
L 98.133263 48.828777 
L 104.656463 53.287144 
L 111.831984 58.487154 
L 120.312144 64.940274 
L 131.401585 73.691571 
L 152.275826 90.209424 
L 160.755986 96.594671 
L 167.931507 101.716296 
L 174.454707 106.087652 
L 180.325587 109.748984 
L 185.544148 112.759072 
L 190.762708 115.51706 
L 195.981268 118.003605 
L 200.547508 119.942902 
L 205.113749 121.650575 
L 209.679989 123.117452 
L 214.246229 124.335654 
L 218.812469 125.298638 
L 223.37871 126.001232 
L 227.29263 126.393307 
L 231.20655 126.589732 
L 235.12047 126.589732 
L 239.03439 126.393307 
L 242.948311 126.001232 
L 246.862231 125.415054 
L 251.428471 124.488984 
L 255.994711 123.306873 
L 260.560951 121.87507 
L 265.127192 120.201264 
L 269.693432 118.294447 
L 274.259672 116.164859 
L 279.478232 113.47299 
L 284.696793 110.524014 
L 290.567673 106.924915 
L 296.438553 103.058587 
L 302.961754 98.491063 
L 310.137274 93.194537 
L 319.269754 86.149132 
L 333.620795 74.733048 
L 347.319516 63.930132 
L 355.799676 57.521557 
L 362.975197 52.373239 
L 369.498397 47.972396 
L 375.369277 44.280547 
L 380.587838 41.240397 
L 385.806398 38.449801 
L 391.024958 35.928331 
L 395.591198 33.956767 
L 400.157439 32.215414 
L 404.723679 30.713624 
L 409.289919 29.459465 
L 413.856159 28.459673 
L 418.422399 27.719616 
L 422.33632 27.295063 
L 426.25024 27.065954 
L 428.85952 27.022275 
L 428.85952 27.022275 
" clip-path="url(#p226ce80b54)" style="fill: none; stroke: #17485a; stroke-width: 1.6; stroke-linecap: square"/>
   </g>
   <g id="line2d_13">
    <path d="M 37.4675 126.614303 
L 41.38142 126.516042 
L 45.29534 126.221647 
L 49.209261 125.732279 
L 53.775501 124.917545 
L 58.341741 123.844468 
L 62.907981 122.518811 
L 67.474222 120.947695 
L 72.040462 119.139558 
L 76.606702 117.104111 
L 81.825262 114.513626 
L 87.043823 111.658735 
L 92.262383 108.559463 
L 98.133263 104.807801 
L 104.656463 100.349434 
L 111.831984 95.149424 
L 120.312144 88.696304 
L 131.401585 79.945007 
L 152.275826 63.427154 
L 160.755986 57.041907 
L 167.931507 51.920282 
L 174.454707 47.548926 
L 180.325587 43.887594 
L 185.544148 40.877507 
L 190.762708 38.119518 
L 195.981268 35.632973 
L 200.547508 33.693676 
L 205.113749 31.986003 
L 209.679989 30.519126 
L 214.246229 29.300924 
L 218.812469 28.33794 
L 223.37871 27.635346 
L 227.29263 27.243271 
L 231.20655 27.046846 
L 235.12047 27.046846 
L 239.03439 27.243271 
L 242.948311 27.635346 
L 246.862231 28.221524 
L 251.428471 29.147594 
L 255.994711 30.329705 
L 260.560951 31.761508 
L 265.127192 33.435314 
L 269.693432 35.342131 
L 274.259672 37.471719 
L 279.478232 40.163588 
L 284.696793 43.112564 
L 290.567673 46.711663 
L 296.438553 50.577991 
L 302.961754 55.145515 
L 310.137274 60.442041 
L 319.269754 67.487446 
L 333.620795 78.90353 
L 347.319516 89.706446 
L 355.799676 96.115021 
L 362.975197 101.263339 
L 369.498397 105.664182 
L 375.369277 109.356031 
L 380.587838 112.396181 
L 385.806398 115.186777 
L 391.024958 117.708247 
L 395.591198 119.679811 
L 400.157439 121.421165 
L 404.723679 122.922954 
L 409.289919 124.177113 
L 413.856159 125.176905 
L 418.422399 125.916962 
L 422.33632 126.341515 
L 426.25024 126.570624 
L 428.85952 126.614303 
L 428.85952 126.614303 
" clip-path="url(#p226ce80b54)" style="fill: none; stroke-dasharray: 5.92,2.56; stroke-dashoffset: 0; stroke: #b96724; stroke-width: 1.6"/>
   </g>
   <g id="line2d_14">
    <path d="M 37.4675 76.818289 
L 428.85952 76.818289 
" clip-path="url(#p226ce80b54)" style="fill: none; stroke-dasharray: 1.6,2.64; stroke-dashoffset: 0; stroke: #202b32; stroke-width: 1.6"/>
   </g>
   <g id="patch_3">
    <path d="M 37.4675 130.597984 
L 37.4675 23.038594 
" style="fill: none; stroke: #a8b0b4; stroke-width: 0.8; stroke-linejoin: miter; stroke-linecap: square"/>
   </g>
   <g id="patch_4">
    <path d="M 37.4675 130.597984 
L 428.85952 130.597984 
" style="fill: none; stroke: #a8b0b4; stroke-width: 0.8; stroke-linejoin: miter; stroke-linecap: square"/>
   </g>
   <g id="text_11">
    <text style="font-size: 9px; font-family: 'DejaVu Sans'; text-anchor: start; fill: #202b32" x="37.4675" y="14.038594" transform="rotate(-0 37.4675 14.038594)">Opposite selected fringes; flat unconditional output</text>
   </g>
   <g id="legend_1">
    <g id="line2d_15">
     <path d="M 58.550698 175.262583 
L 66.250698 175.262583 
L 73.950698 175.262583 
" style="fill: none; stroke: #17485a; stroke-width: 1.6; stroke-linecap: square"/>
    </g>
    <g id="text_12">
     <!-- Selected $r=+1$, weight $1/2$ -->
     <g style="fill: #202b32" transform="translate(79.550698 177.712583)">
      <text>
       <tspan x="0" y="-0.6875" style="font-size: 7px; font-family: 'DejaVu Sans'; fill: #202b32">S</tspan>
       <tspan x="4.443359" y="-0.6875" style="font-size: 7px; font-family: 'DejaVu Sans'; fill: #202b32">e</tspan>
       <tspan x="8.75" y="-0.6875" style="font-size: 7px; font-family: 'DejaVu Sans'; fill: #202b32">l</tspan>
       <tspan x="10.694824" y="-0.6875" style="font-size: 7px; font-family: 'DejaVu Sans'; fill: #202b32">e</tspan>
       <tspan x="15.001465" y="-0.6875" style="font-size: 7px; font-family: 'DejaVu Sans'; fill: #202b32">c</tspan>
       <tspan x="18.850098" y="-0.6875" style="font-size: 7px; font-family: 'DejaVu Sans'; fill: #202b32">t</tspan>
       <tspan x="21.594727" y="-0.6875" style="font-size: 7px; font-family: 'DejaVu Sans'; fill: #202b32">e</tspan>
       <tspan x="25.901367" y="-0.6875" style="font-size: 7px; font-family: 'DejaVu Sans'; fill: #202b32">d</tspan>
       <tspan x="30.344727" y="-0.6875" style="font-size: 7px; font-family: 'DejaVu Sans'; fill: #202b32"> </tspan>
       <tspan x="36.811523" y="-0.6875" style="font-size: 7px; font-family: 'DejaVu Sans'; fill: #202b32">=</tspan>
       <tspan x="44.040527" y="-0.6875" style="font-size: 7px; font-family: 'DejaVu Sans'; fill: #202b32">+</tspan>
       <tspan x="49.905762" y="-0.6875" style="font-size: 7px; font-family: 'DejaVu Sans'; fill: #202b32">1</tspan>
       <tspan x="54.359375" y="-0.6875" style="font-size: 7px; font-family: 'DejaVu Sans'; fill: #202b32">,</tspan>
       <tspan x="56.584473" y="-0.6875" style="font-size: 7px; font-family: 'DejaVu Sans'; fill: #202b32"> </tspan>
       <tspan x="58.80957" y="-0.6875" style="font-size: 7px; font-family: 'DejaVu Sans'; fill: #202b32">w</tspan>
       <tspan x="64.534668" y="-0.6875" style="font-size: 7px; font-family: 'DejaVu Sans'; fill: #202b32">e</tspan>
       <tspan x="68.841309" y="-0.6875" style="font-size: 7px; font-family: 'DejaVu Sans'; fill: #202b32">i</tspan>
       <tspan x="70.786133" y="-0.6875" style="font-size: 7px; font-family: 'DejaVu Sans'; fill: #202b32">g</tspan>
       <tspan x="75.229492" y="-0.6875" style="font-size: 7px; font-family: 'DejaVu Sans'; fill: #202b32">h</tspan>
       <tspan x="79.666016" y="-0.6875" style="font-size: 7px; font-family: 'DejaVu Sans'; fill: #202b32">t</tspan>
       <tspan x="82.410645" y="-0.6875" style="font-size: 7px; font-family: 'DejaVu Sans'; fill: #202b32"> </tspan>
       <tspan x="84.635742" y="-0.6875" style="font-size: 7px; font-family: 'DejaVu Sans'; fill: #202b32">1</tspan>
       <tspan x="89.089355" y="-0.6875" style="font-size: 7px; font-family: 'DejaVu Sans'; fill: #202b32">/</tspan>
       <tspan x="91.447754" y="-0.6875" style="font-size: 7px; font-family: 'DejaVu Sans'; fill: #202b32">2</tspan>
       <tspan x="32.569824" y="-0.6875" style="font-style: oblique; font-size: 7px; font-family: 'DejaVu Sans'; fill: #202b32">r</tspan>
      </text>
     </g>
    </g>
    <g id="line2d_16">
     <path d="M 189.520698 175.262583 
L 197.220698 175.262583 
L 204.920698 175.262583 
" style="fill: none; stroke-dasharray: 5.92,2.56; stroke-dashoffset: 0; stroke: #b96724; stroke-width: 1.6"/>
    </g>
    <g id="text_13">
     <!-- Selected $r=-1$, weight $1/2$ -->
     <g style="fill: #202b32" transform="translate(210.520698 177.712583)">
      <text>
       <tspan x="0" y="-0.6875" style="font-size: 7px; font-family: 'DejaVu Sans'; fill: #202b32">S</tspan>
       <tspan x="4.443359" y="-0.6875" style="font-size: 7px; font-family: 'DejaVu Sans'; fill: #202b32">e</tspan>
       <tspan x="8.75" y="-0.6875" style="font-size: 7px; font-family: 'DejaVu Sans'; fill: #202b32">l</tspan>
       <tspan x="10.694824" y="-0.6875" style="font-size: 7px; font-family: 'DejaVu Sans'; fill: #202b32">e</tspan>
       <tspan x="15.001465" y="-0.6875" style="font-size: 7px; font-family: 'DejaVu Sans'; fill: #202b32">c</tspan>
       <tspan x="18.850098" y="-0.6875" style="font-size: 7px; font-family: 'DejaVu Sans'; fill: #202b32">t</tspan>
       <tspan x="21.594727" y="-0.6875" style="font-size: 7px; font-family: 'DejaVu Sans'; fill: #202b32">e</tspan>
       <tspan x="25.901367" y="-0.6875" style="font-size: 7px; font-family: 'DejaVu Sans'; fill: #202b32">d</tspan>
       <tspan x="30.344727" y="-0.6875" style="font-size: 7px; font-family: 'DejaVu Sans'; fill: #202b32"> </tspan>
       <tspan x="36.811523" y="-0.6875" style="font-size: 7px; font-family: 'DejaVu Sans'; fill: #202b32">=</tspan>
       <tspan x="44.040527" y="-0.6875" style="font-size: 7px; font-family: 'DejaVu Sans'; fill: #202b32">−</tspan>
       <tspan x="49.905762" y="-0.6875" style="font-size: 7px; font-family: 'DejaVu Sans'; fill: #202b32">1</tspan>
       <tspan x="54.359375" y="-0.6875" style="font-size: 7px; font-family: 'DejaVu Sans'; fill: #202b32">,</tspan>
       <tspan x="56.584473" y="-0.6875" style="font-size: 7px; font-family: 'DejaVu Sans'; fill: #202b32"> </tspan>
       <tspan x="58.80957" y="-0.6875" style="font-size: 7px; font-family: 'DejaVu Sans'; fill: #202b32">w</tspan>
       <tspan x="64.534668" y="-0.6875" style="font-size: 7px; font-family: 'DejaVu Sans'; fill: #202b32">e</tspan>
       <tspan x="68.841309" y="-0.6875" style="font-size: 7px; font-family: 'DejaVu Sans'; fill: #202b32">i</tspan>
       <tspan x="70.786133" y="-0.6875" style="font-size: 7px; font-family: 'DejaVu Sans'; fill: #202b32">g</tspan>
       <tspan x="75.229492" y="-0.6875" style="font-size: 7px; font-family: 'DejaVu Sans'; fill: #202b32">h</tspan>
       <tspan x="79.666016" y="-0.6875" style="font-size: 7px; font-family: 'DejaVu Sans'; fill: #202b32">t</tspan>
       <tspan x="82.410645" y="-0.6875" style="font-size: 7px; font-family: 'DejaVu Sans'; fill: #202b32"> </tspan>
       <tspan x="84.635742" y="-0.6875" style="font-size: 7px; font-family: 'DejaVu Sans'; fill: #202b32">1</tspan>
       <tspan x="89.089355" y="-0.6875" style="font-size: 7px; font-family: 'DejaVu Sans'; fill: #202b32">/</tspan>
       <tspan x="91.447754" y="-0.6875" style="font-size: 7px; font-family: 'DejaVu Sans'; fill: #202b32">2</tspan>
       <tspan x="32.569824" y="-0.6875" style="font-style: oblique; font-size: 7px; font-family: 'DejaVu Sans'; fill: #202b32">r</tspan>
      </text>
     </g>
    </g>
    <g id="line2d_17">
     <path d="M 320.490698 175.262583 
L 328.190698 175.262583 
L 335.890698 175.262583 
" style="fill: none; stroke-dasharray: 1.6,2.64; stroke-dashoffset: 0; stroke: #202b32; stroke-width: 1.6"/>
    </g>
    <g id="text_14">
     <text style="font-size: 7px; font-family: 'DejaVu Sans'; text-anchor: start; fill: #202b32" x="341.490698" y="177.712583" transform="rotate(-0 341.490698 177.712583)">Weighted marginal</text>
    </g>
   </g>
  </g>
 </g>
 <defs>
  <clipPath id="p226ce80b54">
   <rect x="37.4675" y="23.038594" width="391.39202" height="107.559391"/>
  </clipPath>
 </defs>
</svg>
